<?xml version="1.0" encoding="utf-8"?>
<!-- Generator: Adobe Illustrator 15.0.2, SVG Export Plug-In . SVG Version: 6.00 Build 0)  -->
<!DOCTYPE svg PUBLIC "-//W3C//DTD SVG 1.1//EN" "http://www.w3.org/Graphics/SVG/1.1/DTD/svg11.dtd">
<svg version="1.1" id="Layer_1" xmlns="http://www.w3.org/2000/svg" xmlns:xlink="http://www.w3.org/1999/xlink" x="0px" y="0px"
	 width="512px" height="512px" viewBox="0 0 512 512" enable-background="new 0 0 512 512" xml:space="preserve">
<path d="M113.547,36.412l74.59-33.209l23.801,53.455c25.96-5.768,52.292-6.266,77.634-2.014L310.541,0l76.225,29.255l-20.97,54.644
	c21.674,13.801,40.903,31.793,56.345,53.447l53.448-23.8l33.222,74.59l-53.461,23.801c5.768,25.96,6.259,52.292,2.007,77.634
	L512,310.541l-29.249,76.225l-54.657-20.97c-13.794,21.674-31.786,40.903-53.435,56.345l23.801,53.448l-74.591,33.222l-23.8-53.461
	c-25.967,5.768-52.292,6.259-77.634,2.007L201.459,512l-76.225-29.249l20.977-54.644c-21.675-13.808-40.91-31.8-56.345-53.448
	L36.412,398.46L3.203,323.869l53.455-23.8c-5.768-25.967-6.266-52.292-2.014-77.634L0,201.459l29.255-76.225l54.651,20.977
	c13.794-21.675,31.786-40.91,53.44-56.345L113.547,36.412z M206.19,144.124c-61.794,27.509-89.581,99.899-62.066,161.686
	c27.509,61.794,99.899,89.594,161.686,62.072c61.794-27.508,89.594-99.892,62.072-161.691
	C340.374,144.396,267.99,116.609,206.19,144.124z"/>
</svg>
